<?xml version="1.0" encoding="UTF-8"?>
<svg width="512" height="512" viewBox="0 0 512 512" fill="none" xmlns="http://www.w3.org/2000/svg">
  <!-- Background circle -->
  <circle cx="256" cy="256" r="240" fill="#4F46E5"/>
  <!-- Question mark -->
  <path d="M256 400C269.255 400 280 389.255 280 376C280 362.745 269.255 352 256 352C242.745 352 232 362.745 232 376C232 389.255 242.745 400 256 400Z" fill="white"/>
  <path d="M256 320C269.255 320 280 309.255 280 296V280C280 266.745 290.745 256 304 256C317.255 256 328 245.255 328 232C328 190.579 294.421 157 253 157C211.579 157 178 190.579 178 232C178 245.255 188.745 256 202 256C215.255 256 226 245.255 226 232C226 218.745 236.745 208 250 208C263.255 208 274 218.745 274 232V248C274 261.255 263.255 272 250 272C236.745 272 226 282.745 226 296C226 309.255 236.745 320 250 320H256Z" fill="white"/>
</svg> 